<svg width="83" height="28" viewBox="0 0 83 28" fill="none" xmlns="http://www.w3.org/2000/svg">
<path d="M12.9957 11.9291C12.9957 13.4831 12.7043 14.7846 12.1216 15.8336C11.5517 16.8826 10.7294 17.6726 9.65451 18.2036C8.57963 18.7345 7.27812 19 5.74997 19H1.88428V5.13014H6.15791C7.55655 5.13014 8.76741 5.38914 9.79049 5.90716C10.8136 6.42517 11.6035 7.18925 12.1604 8.19938C12.7173 9.19656 12.9957 10.4398 12.9957 11.9291ZM11.1503 11.9874C11.1503 10.7571 10.9431 9.74695 10.5287 8.95698C10.1272 8.167 9.53148 7.58423 8.74151 7.20867C7.96449 6.82016 7.01911 6.62591 5.90538 6.62591H3.63258V17.5042H5.51686C7.39467 17.5042 8.79979 17.0445 9.73222 16.125C10.6776 15.1926 11.1503 13.8134 11.1503 11.9874ZM17.5504 8.58789V19H15.841V8.58789H17.5504ZM16.7151 4.68335C16.9741 4.68335 17.2007 4.774 17.395 4.95531C17.6022 5.12366 17.7058 5.39562 17.7058 5.77118C17.7058 6.13379 17.6022 6.40575 17.395 6.58705C17.2007 6.76836 16.9741 6.85901 16.7151 6.85901C16.4302 6.85901 16.1906 6.76836 15.9964 6.58705C15.8021 6.40575 15.705 6.13379 15.705 5.77118C15.705 5.39562 15.8021 5.12366 15.9964 4.95531C16.1906 4.774 16.4302 4.68335 16.7151 4.68335ZM24.54 8.39363C25.2263 8.39363 25.8415 8.52314 26.3854 8.78214C26.9423 9.04115 27.415 9.43614 27.8035 9.96711H27.9006L28.1337 8.58789H29.4935V19.1748C29.4935 20.1591 29.3251 20.9814 28.9884 21.6419C28.6517 22.3153 28.1402 22.8204 27.4538 23.1571C26.7674 23.4938 25.8933 23.6621 24.8314 23.6621C24.0802 23.6621 23.3874 23.6039 22.7528 23.4873C22.1312 23.3837 21.5743 23.2218 21.0822 23.0017V21.4282C21.4189 21.5966 21.788 21.739 22.1895 21.8556C22.5909 21.9851 23.0248 22.0822 23.491 22.1469C23.9572 22.2117 24.4364 22.2441 24.9285 22.2441C25.8221 22.2441 26.5214 21.9786 27.0264 21.4476C27.5445 20.9296 27.8035 20.2173 27.8035 19.3108V18.9029C27.8035 18.7475 27.8099 18.5273 27.8229 18.2424C27.8358 17.9445 27.8488 17.7373 27.8617 17.6208H27.784C27.4214 18.1517 26.9682 18.5467 26.4243 18.8057C25.8933 19.0648 25.2717 19.1943 24.5594 19.1943C23.2126 19.1943 22.1571 18.7216 21.393 17.7762C20.6419 16.8308 20.2663 15.5099 20.2663 13.8134C20.2663 12.6996 20.4347 11.7413 20.7714 10.9384C21.1211 10.1225 21.6132 9.49442 22.2478 9.0541C22.8823 8.61379 23.6464 8.39363 24.54 8.39363ZM24.7731 9.83113C24.1903 9.83113 23.6917 9.98653 23.2773 10.2973C22.8758 10.6081 22.565 11.0614 22.3449 11.6571C22.1377 12.2528 22.0341 12.9781 22.0341 13.8328C22.0341 15.1149 22.2672 16.0991 22.7334 16.7855C23.2126 17.4589 23.9054 17.7956 24.8119 17.7956C25.3429 17.7956 25.7962 17.7309 26.1717 17.6014C26.5473 17.4589 26.8581 17.2452 27.1041 16.9603C27.3502 16.6625 27.5315 16.2869 27.6481 15.8336C27.7646 15.3804 27.8229 14.8429 27.8229 14.2213V13.8134C27.8229 12.868 27.7128 12.1039 27.4927 11.5212C27.2855 10.9384 26.9552 10.511 26.502 10.2391C26.0487 9.96711 25.4724 9.83113 24.7731 9.83113ZM34.5098 8.58789V19H32.8004V8.58789H34.5098ZM33.6745 4.68335C33.9336 4.68335 34.1602 4.774 34.3544 4.95531C34.5616 5.12366 34.6652 5.39562 34.6652 5.77118C34.6652 6.13379 34.5616 6.40575 34.3544 6.58705C34.1602 6.76836 33.9336 6.85901 33.6745 6.85901C33.3896 6.85901 33.1501 6.76836 32.9558 6.58705C32.7615 6.40575 32.6644 6.13379 32.6644 5.77118C32.6644 5.39562 32.7615 5.12366 32.9558 4.95531C33.1501 4.774 33.3896 4.68335 33.6745 4.68335Z" fill="black"/>
<path d="M38.2545 19V5.13014H40.0028V17.446H46.0635V19H38.2545ZM52.2295 8.39363C53.1231 8.39363 53.8871 8.58789 54.5217 8.9764C55.1692 9.36491 55.6613 9.9153 55.9981 10.6276C56.3477 11.3269 56.5225 12.1492 56.5225 13.0946V14.1242H49.3934C49.4193 15.3027 49.7171 16.2027 50.2869 16.8243C50.8697 17.433 51.6791 17.7373 52.7151 17.7373C53.3756 17.7373 53.9584 17.6791 54.4634 17.5625C54.9815 17.433 55.5124 17.2517 56.0563 17.0186V18.5144C55.5254 18.7475 55.0009 18.9158 54.4829 19.0194C53.9648 19.136 53.3497 19.1943 52.6374 19.1943C51.6532 19.1943 50.7791 18.9935 50.015 18.5921C49.2639 18.1906 48.6746 17.5949 48.2473 16.8049C47.8328 16.002 47.6256 15.0242 47.6256 13.8716C47.6256 12.732 47.8134 11.7543 48.189 10.9384C48.5775 10.1225 49.1149 9.49442 49.8013 9.0541C50.5006 8.61379 51.31 8.39363 52.2295 8.39363ZM52.2101 9.79227C51.3942 9.79227 50.7467 10.0578 50.2675 10.5887C49.8013 11.1067 49.5229 11.832 49.4322 12.7644H54.7354C54.7354 12.1687 54.6447 11.6507 54.4634 11.2103C54.2821 10.77 54.0037 10.4268 53.6281 10.1808C53.2655 9.92178 52.7928 9.79227 52.2101 9.79227ZM64.185 8.39363C65.4283 8.39363 66.3672 8.69797 67.0017 9.30664C67.6363 9.90235 67.9536 10.8736 67.9536 12.2205V19H66.2636V12.337C66.2636 11.4953 66.0758 10.8672 65.7002 10.4527C65.3247 10.0383 64.7354 9.83113 63.9325 9.83113C62.7799 9.83113 61.9835 10.1549 61.5431 10.8024C61.1028 11.4499 60.8827 12.3824 60.8827 13.5997V19H59.1732V8.58789H60.5524L60.805 10.006H60.9021C61.1352 9.64335 61.4201 9.34549 61.7568 9.11238C62.1065 8.86632 62.4885 8.68502 62.9029 8.56846C63.3174 8.45191 63.7447 8.39363 64.185 8.39363ZM79.8841 19H70.2684V17.6791L77.5724 6.68418H70.5015V5.13014H79.6898V6.45108L72.3858 17.446H79.8841V19Z" fill="#FA4A4A"/>
</svg>
